<?xml version="1.0" encoding="UTF-8" standalone="no"?>
<!-- Created with Inkscape (http://www.inkscape.org/) -->

<svg
   xmlns:dc="http://purl.org/dc/elements/1.1/"
   xmlns:cc="http://creativecommons.org/ns#"
   xmlns:rdf="http://www.w3.org/1999/02/22-rdf-syntax-ns#"
   xmlns:svg="http://www.w3.org/2000/svg"
   xmlns="http://www.w3.org/2000/svg"
   xmlns:sodipodi="http://sodipodi.sourceforge.net/DTD/sodipodi-0.dtd"
   xmlns:inkscape="http://www.inkscape.org/namespaces/inkscape"
   width="64px"
   height="64px"
   id="svg5657"
   version="1.1"
   inkscape:version="0.48.5 r10040"
   sodipodi:docname="fahrrad.svg">
  <defs
     id="defs5659" />
  <sodipodi:namedview
     id="base"
     pagecolor="#ffffff"
     bordercolor="#666666"
     borderopacity="1.0"
     inkscape:pageopacity="0.0"
     inkscape:pageshadow="2"
     inkscape:zoom="5.5"
     inkscape:cx="37.818182"
     inkscape:cy="52.363637"
     inkscape:current-layer="layer1"
     showgrid="true"
     inkscape:document-units="px"
     inkscape:grid-bbox="true"
     inkscape:window-width="1920"
     inkscape:window-height="1004"
     inkscape:window-x="1920"
     inkscape:window-y="24"
     inkscape:window-maximized="1" />
  <metadata
     id="metadata5662">
    <rdf:RDF>
      <cc:Work
         rdf:about="">
        <dc:format>image/svg+xml</dc:format>
        <dc:type
           rdf:resource="http://purl.org/dc/dcmitype/StillImage" />
        <dc:title />
      </cc:Work>
    </rdf:RDF>
  </metadata>
  <g
     id="layer1"
     inkscape:label="Layer 1"
     inkscape:groupmode="layer">
    <path
       style="fill:#000000;fill-opacity:1;stroke:#000000;stroke-width:0.12655631;stroke-opacity:1"
       id="path5350"
       d="m 58.516143,28.833161 c 0.538653,0.348627 1.080112,0.699373 1.668608,0.9758 0.457262,0.228007 0.881717,0.504294 1.16941,0.904242 0.240809,0.319816 0.413535,0.679202 0.534288,1.049952 0.159276,0.429727 0.250393,0.875584 0.300147,1.325837 0.03078,0.428213 0.143326,0.844167 0.159347,1.273654 -0.01454,0.543795 -0.153395,1.077958 -0.32504,1.596535 -0.214668,0.582319 -0.472783,1.1491 -0.727142,1.7175 -0.202023,0.43641 -0.33388,0.89947 -0.554867,1.328133 -0.262743,0.443401 -0.726807,0.725483 -1.171687,1.002575 -1.015248,0.598203 -2.087006,1.118711 -3.132403,1.666879 -0.227946,0.119526 -0.435427,0.212644 -0.685813,0.286251 -0.479569,0.128228 -0.979113,0.130906 -1.474141,0.138995 -0.377022,-0.03669 -0.7471,0.04245 -1.120325,0.06058 -0.106112,0.0052 -0.555815,-0.0083 -0.65458,-0.01082 -0.763021,0.0027 -1.502296,-0.18575 -2.236682,-0.352117 -0.496826,-0.07522 -0.965328,-0.197165 -1.414132,-0.40195 -0.413863,-0.229834 -0.74161,-0.56253 -1.105503,-0.850196 -0.373138,-0.302902 -0.756372,-0.599691 -1.102373,-0.928746 -0.278876,-0.328313 -0.610699,-0.593701 -0.85393,-0.94876 -0.302636,-0.528995 -0.679347,-1.019535 -1.03841,-1.517523 -0.255912,-0.396098 -0.542152,-0.774775 -0.792082,-1.174067 -0.216359,-0.377589 -0.352617,-0.782929 -0.439746,-1.199691 -0.07692,-0.4008 -0.05143,-0.809238 -0.09127,-1.212777 -0.05779,-0.352504 -0.137249,-0.700824 -0.108053,-1.058283 0.03928,-0.269779 0.191289,-0.497836 0.388569,-0.695887 0.861695,-0.848577 2.065558,-1.398968 3.268238,-1.755793 0.316842,-0.208147 0.717133,-0.212969 1.063419,-0.343177 0.332757,-0.134976 0.673035,-0.249682 1.022802,-0.34683 0.408678,-0.141246 0.817807,-0.288541 1.239312,-0.395668 0.388025,-0.09922 0.794371,-0.07162 1.186961,-0.136488 0.412663,-0.05883 0.819451,-0.09459 1.220538,-0.199642 0.342981,-0.08457 0.698812,-0.09953 1.05195,-0.110493 0.427359,-0.0062 0.854892,-0.0054 1.282305,-0.0034 0.488292,-0.02491 0.966298,0.0717 1.449808,0.117798 0.514589,0.06196 1.047903,0.09738 1.549856,0.223362 0.247575,0.06501 0.12994,0.02218 0.353569,0.126944 0,0 -2.342125,1.415989 -2.342125,1.415989 l 0,0 c -0.196096,-0.06745 -0.09055,-0.03583 -0.317806,-0.09157 -0.501486,-0.09484 -1.011441,-0.160666 -1.521524,-0.201226 -0.47749,-0.04999 -0.953183,-0.118399 -1.435837,-0.09275 -0.427232,0.0017 -0.854803,-0.0018 -1.281581,0.01945 -0.344622,0.02203 -0.686645,0.06227 -1.019133,0.15161 -0.406217,0.08332 -0.824896,0.102819 -1.234151,0.172865 -0.39044,0.03523 -0.785945,0.05293 -1.160708,0.169892 -0.413615,0.127287 -0.823596,0.264109 -1.234454,0.398504 -0.346475,0.111685 -0.682297,0.245859 -1.030894,0.351224 -0.365034,0.08099 -0.707507,0.205365 -1.049223,0.346965 -0.126853,0.04872 -0.493961,0.220576 -0.375455,0.156746 3.994065,-2.151313 2.693885,-1.526634 1.906972,-0.977189 -0.159049,0.186815 -0.369823,0.330599 -0.461296,0.562411 -0.06219,0.341811 0.0021,0.671141 0.07014,1.010444 0.0573,0.397435 0.01709,0.800943 0.08322,1.198564 0.06903,0.392585 0.190542,0.770014 0.392281,1.124627 0.242687,0.396866 0.525947,0.771254 0.770095,1.167452 0.353234,0.502453 0.726562,0.994603 1.045291,1.516072 0.239677,0.33375 0.576495,0.580881 0.839319,0.898616 0.338656,0.322693 0.697824,0.628983 1.070926,0.918203 0.349573,0.27463 0.673926,0.587973 1.08744,0.784298 0.427035,0.191215 0.890447,0.275278 1.351182,0.374574 0.721795,0.165984 1.453095,0.322159 2.203197,0.301185 0.594197,-0.0027 1.183838,-0.07392 1.778731,-0.06479 0.481323,-0.01698 0.966598,-0.04592 1.419456,-0.209992 0.267522,-0.11095 0.176032,-0.06742 0.432159,-0.195772 0.07566,-0.03792 0.300799,-0.154686 0.226208,-0.115042 -3.905805,2.075838 -2.477563,1.313925 -1.631199,0.855858 0.426259,-0.26107 0.89107,-0.50244 1.203669,-0.883187 0.277792,-0.401796 0.383907,-0.879004 0.592064,-1.312026 0.249421,-0.563184 0.51275,-1.121025 0.724235,-1.697579 0.192778,-0.488346 0.326413,-1.000418 0.357845,-1.519658 0.01356,-0.424762 -0.127239,-0.830665 -0.146545,-1.253724 -0.04273,-0.435145 -0.114016,-0.868963 -0.280861,-1.28099 -0.107809,-0.347111 -0.270563,-0.683003 -0.489917,-0.983884 -0.266609,-0.360286 -0.676906,-0.591222 -1.08362,-0.806485 -0.585842,-0.302487 -1.132542,-0.661239 -1.706754,-0.981196 0,0 2.367711,-1.381218 2.367711,-1.381218 z"
       inkscape:connector-curvature="0" />
    <path
       style="fill:#000000;fill-opacity:1;stroke:#000000;stroke-width:0.12655631;stroke-opacity:1"
       id="path5350-2"
       d="m 16.854689,29.839648 c 0.538653,0.348627 1.080112,0.699373 1.668608,0.9758 0.457262,0.228006 0.881717,0.504294 1.16941,0.904241 0.240809,0.319816 0.413535,0.679202 0.534288,1.049953 0.159276,0.429727 0.250393,0.875583 0.300147,1.325837 0.03078,0.428213 0.143326,0.844167 0.159347,1.273653 -0.01454,0.543795 -0.153395,1.077959 -0.32504,1.596536 -0.214668,0.582319 -0.472783,1.149099 -0.727142,1.7175 -0.202023,0.43641 -0.33388,0.89947 -0.554867,1.328133 -0.262743,0.443401 -0.726807,0.725483 -1.171687,1.002575 -1.015248,0.598203 -2.087006,1.118711 -3.132403,1.666879 -0.227946,0.119526 -0.435427,0.212643 -0.685813,0.286251 -0.479569,0.128228 -0.979113,0.130906 -1.474141,0.138995 -0.377022,-0.03669 -0.7471,0.04245 -1.120325,0.06058 -0.106112,0.0052 -0.555815,-0.0083 -0.65458,-0.01082 -0.763021,0.0027 -1.5022956,-0.18575 -2.2366821,-0.352118 C 8.1069834,42.728416 7.6384814,42.606477 7.1896767,42.401692 6.7758144,42.171858 6.4480668,41.839162 6.0841743,41.551496 5.7110364,41.248594 5.327802,40.951805 4.9818009,40.62275 4.7029254,40.294437 4.371102,40.029048 4.1278715,39.673989 3.8252348,39.144995 3.4485237,38.654455 3.0894614,38.156467 2.8335488,37.760369 2.5473093,37.381692 2.2973791,36.9824 2.0810202,36.604811 1.9447619,36.19947 1.8576328,35.782709 1.7807091,35.381909 1.8062005,34.973471 1.7663591,34.569931 1.7085665,34.217427 1.6291103,33.869108 1.6583062,33.511649 1.6975829,33.24187 1.8495953,33.013813 2.0468747,32.815762 2.9085699,31.967184 4.1124329,31.416794 5.3151133,31.059969 5.6319555,30.851822 6.0322461,30.846999 6.3785322,30.716792 6.711289,30.581816 7.0515675,30.46711 7.401334,30.369961 7.8100122,30.228716 8.2191411,30.08142 8.6406459,29.974294 c 0.3880248,-0.09922 0.7943708,-0.07162 1.1869606,-0.136489 0.4126635,-0.05883 0.8194515,-0.09459 1.2205385,-0.199641 0.342981,-0.08457 0.698812,-0.09953 1.05195,-0.110494 0.427359,-0.0062 0.854892,-0.0054 1.282305,-0.0034 0.488292,-0.02491 0.966298,0.0717 1.449808,0.117798 0.514589,0.06196 1.047903,0.09738 1.549856,0.223362 0.247575,0.06501 0.12994,0.02218 0.353569,0.126943 0,0 -2.342125,1.41599 -2.342125,1.41599 l 0,0 c -0.196096,-0.06745 -0.09055,-0.03583 -0.317806,-0.09157 -0.501486,-0.09484 -1.011441,-0.160666 -1.521524,-0.201225 -0.47749,-0.04999 -0.953183,-0.1184 -1.435837,-0.09275 -0.427232,0.0017 -0.854803,-0.0018 -1.2815806,0.01945 -0.3446221,0.02203 -0.6866454,0.06227 -1.0191331,0.15161 C 8.41141,31.2772 7.9927307,31.296697 7.5834758,31.366743 7.1930365,31.401977 6.797531,31.419676 6.4227676,31.536635 6.0091532,31.663922 5.5991717,31.800744 5.1883138,31.935139 4.8418394,32.046823 4.5060172,32.180998 4.1574201,32.286363 3.792386,32.367356 3.4499132,32.491728 3.1081974,32.633328 2.9813436,32.682051 2.6142358,32.853904 2.7327419,32.790074 6.7268071,30.63876 5.4266266,31.26344 4.6397139,31.812885 4.480665,31.9997 4.2698908,32.143484 4.1784181,32.375296 c -0.062189,0.341811 0.00209,0.671141 0.070142,1.010444 0.057298,0.397435 0.017092,0.800943 0.083216,1.198564 0.069026,0.392585 0.1905413,0.770014 0.392281,1.124627 0.2426869,0.396866 0.5259472,0.771254 0.7700952,1.167452 0.3532337,0.502453 0.7265612,0.994603 1.0452901,1.516072 0.2396772,0.33375 0.5764952,0.580881 0.8393196,0.898616 0.3386556,0.322693 0.697824,0.628983 1.070926,0.918203 0.349573,0.27463 0.6739263,0.587972 1.08744,0.784298 0.427035,0.191215 0.890447,0.275278 1.351182,0.374574 0.721795,0.165984 1.453095,0.322158 2.203197,0.301185 0.594197,-0.0027 1.183838,-0.07392 1.778731,-0.06479 0.481323,-0.01698 0.966598,-0.04592 1.419456,-0.209993 0.267522,-0.11095 0.176032,-0.06742 0.432159,-0.195771 0.07566,-0.03792 0.300799,-0.154686 0.226208,-0.115043 -3.905805,2.075839 -2.477563,1.313926 -1.631199,0.855858 0.426259,-0.261069 0.89107,-0.502439 1.203669,-0.883186 0.277792,-0.401796 0.383907,-0.879004 0.592064,-1.312027 0.249421,-0.563183 0.51275,-1.121024 0.724235,-1.697579 0.192778,-0.488346 0.326413,-1.000417 0.357846,-1.519658 0.01356,-0.424761 -0.12724,-0.830664 -0.146546,-1.253723 -0.04273,-0.435145 -0.114016,-0.868963 -0.280861,-1.28099 -0.107809,-0.347111 -0.270563,-0.683003 -0.489917,-0.983884 -0.266609,-0.360286 -0.676906,-0.591222 -1.08362,-0.806485 -0.585842,-0.302487 -1.132542,-0.661239 -1.706754,-0.981196 0,0 2.367711,-1.381218 2.367711,-1.381218 z"
       inkscape:connector-curvature="0" />
    <path
       style="fill:#550000;fill-opacity:1;stroke:#800000;stroke-width:3.2524972;stroke-miterlimit:4;stroke-opacity:1;stroke-dasharray:none"
       id="path5384"
       d="m 37.132458,39.671212 c -0.430861,-0.516608 -1.02361,-0.886853 -1.510859,-1.353858 -0.348695,-0.376553 -0.739836,-0.717674 -1.094354,-1.089198 -0.199417,-0.284452 -0.460515,-0.525464 -0.716816,-0.766848 -0.314573,-0.334988 -0.626508,-0.664647 -0.85574,-1.0543 -0.209327,-0.394714 -0.33917,-0.816931 -0.537459,-1.216084 -0.249197,-0.325863 -0.538077,-0.627209 -0.827919,-0.923907 -0.342198,-0.322915 -0.645565,-0.668718 -0.892539,-1.057139 -0.248656,-0.330141 -0.359543,-0.70823 -0.47328,-1.087958 -0.172801,-0.378962 -0.283424,-0.774804 -0.354096,-1.179027 -0.0249,-0.36444 -0.105755,-0.721098 -0.169168,-1.080774 -0.06084,-0.389803 -0.06932,-0.784581 -0.07815,-1.177657 -0.01955,-0.342975 -0.01202,-0.678387 0.14882,-0.993184 0.705454,-0.845309 2.307276,-1.411055 3.046334,-1.791247 0.120354,-0.06191 0.258475,-0.09083 0.380887,-0.149297 -2.495001,1.299954 -3.674412,1.917041 0.327516,-0.17955 0.744635,-0.390111 -1.487995,0.782244 -2.233178,1.171487 -0.06611,0.03453 0.129852,-0.07273 0.195917,-0.107334 0.866859,-0.453983 1.733803,-0.907842 2.602816,-1.358394 0.737594,-0.382416 -1.472373,0.769325 -2.20856,1.153987 1.094634,-0.596933 2.085273,-1.470175 3.35071,-1.705042 0.332331,-0.01174 0.637731,-0.123164 0.964678,-0.169242 0.408627,-0.03388 0.819074,-0.04009 1.229101,-0.04402 0.390451,-0.0023 0.780916,-0.0012 1.171373,-7.24e-4 0.412365,-0.0081 0.819452,-0.113856 1.222373,-0.19194 0.502897,-0.14308 1.019124,-0.233795 1.509112,-0.413702 0.920609,-0.531408 0.008,-0.0011 -2.009296,1.038994 -0.07113,0.03667 0.137455,-0.08059 0.206205,-0.120854 0.07378,-0.04321 0.145243,-0.0899 0.221375,-0.129572 2.505784,-1.305792 1.739039,-0.958734 2.855121,-1.456399 0.884725,-0.358935 2.234604,-1.097799 -1.801823,0.970363 -0.04465,0.02288 0.199478,-0.107243 0.37793,-0.333973 0.170149,-0.285948 0.176894,-0.614438 0.187338,-0.931701 0.0357,-0.313736 -0.03019,-0.599201 -0.148473,-0.890412 C 41.0752,20.762765 40.779729,20.610205 40.49895,20.446024 40.246402,20.194091 39.899853,20.132071 39.576193,20.00221 39.25044,19.894948 38.911268,19.837622 38.590012,19.717233 c -0.06051,-0.02098 -0.123023,-0.03768 -0.181525,-0.06295 -0.109891,-0.04747 -0.209199,-0.113618 -0.31876,-0.161712 -0.160962,-0.07066 -0.337548,-0.102525 -0.505893,-0.156395 -0.43505,-0.133211 -0.898405,-0.126092 -1.342646,-0.210999 -0.393207,-0.08651 -0.794881,-0.122085 -1.197841,-0.139857 -0.425641,-0.01413 -0.851654,-0.01251 -1.277502,-0.01185 -0.386332,9.67e-4 -0.772665,0.0017 -1.158998,0.002 -0.395781,0.0012 -0.791556,-4.83e-4 -1.187335,-0.0012 -0.437524,8.45e-4 -0.875041,-1.5e-5 -1.312562,-4.84e-4 -0.462531,3.63e-4 -0.925054,-6.04e-4 -1.387584,1.21e-4 -0.425312,0.0018 -0.850618,7.25e-4 -1.275926,1.21e-4 -0.42218,-0.06294 -0.844389,-0.120085 -1.271107,-0.149359 -0.408182,-0.02218 -0.817305,-0.02329 -1.226072,-0.0243 -0.537303,-0.0026 -1.074589,-0.0034 -1.611899,-0.0016 -0.471634,-0.03164 -0.929041,0.06964 -1.394357,0.119448 -0.462064,-0.02116 -0.820236,0.149505 -1.217197,0.330902 4.2722,-2.095793 2.333153,-1.386233 1.587857,-0.717645 -0.176048,0.21988 -0.217353,0.502068 -0.29889,0.759542 -0.08923,0.298698 -0.104173,0.608943 -0.116071,0.916559 -0.03636,0.341867 0.04018,0.675269 0.09739,1.010836 0.04069,0.308928 0.15403,0.602915 0.212463,0.909346 0.04841,0.331072 0.07139,0.666588 0.05136,1.00022 -0.186491,1.180807 -2.065638,1.549425 -2.920395,1.991712 -0.358187,0.120349 -0.722346,0.234628 -1.09342,0.319471 -0.381329,0.12608 -0.746161,0.279018 -1.142515,0.363638 -0.384384,0.05164 -0.764576,0.07234 -1.145029,0.143948 -0.431002,0.06283 -0.866955,0.08517 -1.302636,0.09813 -0.472653,0.02387 -0.937763,0.003 -1.405373,-0.05758 -0.465152,-0.02543 -0.913318,-0.108843 -1.366715,-0.19844 -0.05894,-0.0093 -0.117888,-0.01861 -0.176833,-0.02792 0,0 2.302744,-1.464159 2.302744,-1.464159 l 0,0 c 0.06026,0.0116 0.120524,0.02319 0.180787,0.03478 0.443049,0.09314 0.890358,0.143558 1.342818,0.184577 0.460262,0.04711 0.921572,0.03722 1.383836,0.01895 0.429228,-0.01944 0.85866,-0.05057 1.28045,-0.129351 0.376153,-0.05856 0.762437,-0.05914 1.1303,-0.160369 0.384327,-0.112067 0.751401,-0.268284 1.141695,-0.364661 0.362643,-0.103366 0.728543,-0.203388 1.072369,-0.3526 -0.753233,0.400594 -1.509594,0.796343 -2.259698,1.201781 -0.0447,0.02416 0.09729,-0.03425 0.142586,-0.05746 0.173082,-0.08869 0.284828,-0.232469 0.314633,-0.41037 0.07154,-0.305427 0.0081,-0.626515 -0.01431,-0.935221 -0.05103,-0.309632 -0.167557,-0.603718 -0.210199,-0.913703 -0.05605,-0.349284 -0.154234,-0.694866 -0.121489,-1.050495 0.0071,-0.323193 0.01455,-0.648487 0.08306,-0.966754 0.07394,-0.286454 0.167819,-0.566889 0.252521,-0.850002 0.538066,-0.858236 3.316853,-1.554447 3.186518,-1.888754 0.407145,-0.173997 0.822963,-0.244454 1.271831,-0.264288 0.468148,-0.05788 0.934066,-0.118425 1.408667,-0.08947 0.540012,0.0011 1.079986,-0.0014 1.619993,-0.0019 0.414666,0.0028 0.830038,0.0032 1.24322,0.03968 0.418369,0.03979 0.832374,0.114146 1.25266,0.13323 0.425188,-6.04e-4 0.850372,-0.0017 1.27556,1.21e-4 0.462392,7.25e-4 0.924775,-2.42e-4 1.387166,1.21e-4 0.437969,-4.84e-4 0.875934,-0.0012 1.313905,-4.84e-4 0.397232,-8.45e-4 0.79446,-0.0025 1.191695,-0.002 0.385846,-3.62e-4 0.771692,-0.0011 1.157537,-3.62e-4 0.428605,0.0015 0.857471,0.0035 1.285532,0.02533 0.409809,0.02711 0.814304,0.08495 1.215982,0.164131 0.460113,0.06006 0.92517,0.103405 1.368116,0.240761 0.3531,0.102512 0.671278,0.258463 1.012241,0.387055 0.331601,0.0985 0.675935,0.16106 0.9966,0.288738 0.346017,0.117653 0.665834,0.26103 0.945398,0.486852 0.330769,0.195025 0.648459,0.407044 0.815717,0.74455 0.133419,0.318721 0.235159,0.630506 0.195949,0.977533 -0.0044,0.350181 -0.0065,0.706609 -0.127309,1.04298 -0.528848,1.118004 -2.170984,1.468703 -3.32374,1.997444 -0.990279,0.440904 -0.193532,0.09244 1.936193,-1.047116 0.07397,-0.03958 -0.153935,0.06968 -0.226304,0.111645 -0.06952,0.04031 -0.127305,0.09639 -0.198278,0.134557 -2.479588,1.333413 -1.689361,1.022326 -2.80497,1.44827 -0.503937,0.148354 -1.018392,0.262602 -1.530345,0.385246 -0.417099,0.08327 -0.837721,0.172576 -1.267877,0.154691 -0.388895,-6.04e-4 -0.777817,-0.0019 -1.166687,0.003 -0.403075,0.0074 -0.809381,0.01352 -1.206401,0.0837 -0.315818,0.06548 -0.631247,0.12671 -0.947343,0.188793 -0.852138,0.307733 -2.364758,1.204096 1.964834,-1.074901 0.05073,-0.0267 -0.09954,0.05654 -0.146628,0.08831 -0.296369,0.199951 0.0058,0.03094 -0.331015,0.205755 -8.622341,4.556997 1.530642,-0.80782 -0.584933,0.312441 -0.855328,0.452923 -1.715749,0.897903 -2.567645,1.356167 -0.110155,0.05925 6.660954,-3.506802 -0.33725,0.166858 -0.879311,0.353706 -2.089263,1.063252 1.832824,-1.012631 0.124481,-0.06589 -0.238706,0.147063 -0.352078,0.227898 -0.0464,0.03308 -0.09389,0.06487 -0.140834,0.0973 -0.233994,0.249354 -0.247337,0.54529 -0.227425,0.864541 0.0046,0.382193 0.0095,0.765606 0.06344,1.145227 0.05817,0.361621 0.155086,0.71735 0.166755,1.08409 0.05742,0.395908 0.156386,0.783685 0.339523,1.148749 0.113514,0.357901 0.18978,0.724164 0.435104,1.034808 0.234299,0.373517 0.532929,0.703235 0.857526,1.014952 0.309187,0.314981 0.629675,0.628927 0.879791,0.985535 0.197357,0.39467 0.310705,0.816811 0.521792,1.205838 0.213852,0.369427 0.523414,0.673078 0.819946,0.989214 0.263314,0.24328 0.530112,0.486811 0.728489,0.779314 0.345791,0.370537 0.717517,0.719846 1.061979,1.091554 0.490409,0.465222 1.065561,0.849327 1.538597,1.331594 0,0 -2.397666,1.338645 -2.397666,1.338645 z"
       inkscape:connector-curvature="0" />
    <path
       sodipodi:type="arc"
       style="fill:#cccccc;fill-opacity:1;stroke:#cccccc;stroke-width:25.70000076000000178;stroke-miterlimit:4;stroke-opacity:1;stroke-dasharray:none"
       id="path5386"
       sodipodi:cx="287.14285"
       sodipodi:cy="123.07647"
       sodipodi:rx="27.142857"
       sodipodi:ry="23.571428"
       d="m 314.28571,123.07647 a 27.142857,23.571428 0 1 1 -54.28571,0 27.142857,23.571428 0 1 1 54.28571,0 z"
       transform="matrix(0.10931495,0,0,0.11102443,-13.874437,1.7985642)" />
    <path
       sodipodi:type="arc"
       style="fill:#800000;fill-opacity:1;stroke:#550000;stroke-width:0;stroke-miterlimit:4;stroke-opacity:1;stroke-dasharray:none"
       id="path5406"
       sodipodi:cx="295.71429"
       sodipodi:cy="87.362183"
       sodipodi:rx="37.142857"
       sodipodi:ry="15"
       d="m 332.85715,87.362183 a 37.142857,15 0 1 1 -2.84959,-5.761907"
       sodipodi:start="0"
       sodipodi:end="5.8889231"
       transform="matrix(0.1736069,-0.08320521,0.05704001,0.16780664,-40.416593,21.78414)"
       sodipodi:open="true" />
    <path
       style="fill:#cccccc;fill-opacity:1;stroke:#ff0000;stroke-width:0;stroke-miterlimit:4;stroke-opacity:1;stroke-dasharray:none"
       id="path5408"
       d="m 12.242382,41.043263 c -0.51854,0.09273 -1.02511,0.227761 -1.532293,0.359736 -0.421706,0.07816 -0.8411282,0.188467 -1.2239742,0.371401 -0.090468,0.05999 -0.2035654,0.07283 -0.3015985,0.116672 -0.04192,0.01874 -0.1586962,0.08958 -0.1180858,0.0686 3.9594235,-2.046145 0.9356195,-0.474441 -0.4018949,0.221217 3.3975994,-1.718953 2.1704074,-1.259075 1.5778644,-0.763838 -0.131952,0.110282 -0.2524935,0.23118 -0.3839667,0.342132 -0.3620601,0.286432 -0.6024705,0.663482 -0.8476752,1.032034 -0.2424868,0.374273 -0.3984861,0.788027 -0.5364495,1.201987 -0.078959,0.318241 -0.1600752,0.636809 -0.2179234,0.958977 -0.090334,0.373056 -0.1578384,0.748478 -0.1957282,1.128829 -0.0056,0.347921 0.044306,0.694871 0.1287114,1.033627 0.077186,0.299628 0.1884451,0.589057 0.2517321,0.89192 0.026563,0.275668 0.074442,0.540526 0.1854274,0.798467 0.1132873,0.236211 0.361185,0.383126 0.5893906,0.523256 0.4163378,0.20248 0.8720215,0.315228 1.3188675,0.446543 0.440242,0.130506 0.893056,0.205383 1.352745,0.24866 0.454425,0.07196 0.892427,0.203278 1.348175,0.271744 0.334171,0.04597 0.605049,0.06248 0.932976,-0.0101 0.0434,-0.0082 0.08852,-0.0108 0.130208,-0.02448 0.07485,-0.02457 0.282662,-0.132814 0.213666,-0.09679 -3.350427,1.749528 -2.353667,1.256895 -1.669917,0.84205 5.912347,-3.091199 0.223311,-0.120021 0.336786,-0.177119 0.925678,-0.46578 1.746348,-0.937668 2.664038,-1.348974 0.04675,-0.02538 0.187536,-0.100741 0.140266,-0.07615 -0.618913,0.321907 -1.235552,0.647417 -1.855218,0.96813 -0.04902,0.02537 0.0942,-0.05653 0.143136,-0.08203 0.629446,-0.327981 1.613987,-0.919682 2.452976,-1.2439 0.285972,-0.131638 0.585229,-0.223927 0.862074,-0.372699 -0.622556,0.32442 -1.242899,0.652365 -1.867666,0.973264 -0.04419,0.0227 0.0858,-0.04963 0.12546,-0.07842 0.1565,-0.113582 0.233329,-0.252252 0.29583,-0.420701 0.0868,-0.288872 0.06807,-0.579149 -0.0027,-0.868021 -0.08214,-0.264 -0.195024,-0.5295 -0.368048,-0.756054 -0.227914,-0.248922 -0.473975,-0.487365 -0.747465,-0.695325 -0.275753,-0.190134 -0.574994,-0.30967 -0.913395,-0.366963 -0.319735,-0.0174 -0.627978,-0.09462 -0.944678,-0.134607 -0.34216,-0.03664 -0.687266,-0.03843 -1.031326,-0.04113 -0.22419,0.01226 -0.456712,-0.03078 -0.676149,0.02686 -0.105829,0.0278 -0.205656,0.07184 -0.309233,0.105926 -0.76899,0.439395 0.166722,-0.09768 1.755643,-0.901893 0.03935,-0.01991 -0.07133,0.04998 -0.106351,0.07571 -0.11367,0.08348 -0.221609,0.169425 -0.340151,0.247359 -0.714187,0.364606 -1.428375,0.729213 -2.142561,1.09382 0,0 1.836201,-1.319091 1.836201,-1.319091 l 0,0 c -0.626214,0.329831 -1.25243,0.659665 -1.878646,0.989497 0.113439,-0.0487 0.147266,-0.05596 0.246367,-0.127552 0.03842,-0.02776 0.166414,-0.146942 0.210676,-0.171248 0.701007,-0.384962 1.405402,-0.764943 2.11487,-1.13691 0.04618,-0.02421 0.1,-0.03369 0.15,-0.05054 0.338188,-0.09066 0.679518,-0.08896 1.030065,-0.07537 0.35186,0.0064 0.705302,0.01166 1.053464,0.06315 0.31829,0.04936 0.635546,0.102799 0.954405,0.148107 0.357534,0.09035 0.68188,0.240919 0.969963,0.455741 0.281391,0.227489 0.550256,0.470887 0.787168,0.737234 0.186625,0.249611 0.308918,0.538537 0.402036,0.826859 0.0914,0.316534 0.131498,0.634613 0.06181,0.959151 -0.241574,1.07274 -1.421674,1.204009 -2.48947,1.773043 -0.287112,0.125213 -0.583276,0.230903 -0.867815,0.361276 -0.0998,0.04543 -0.395148,0.188532 -0.298858,0.137245 4.004365,-2.132846 0.608932,-0.29121 -0.577319,0.302917 -0.08103,0.03836 -0.899793,0.442154 -0.480217,0.21823 0.603272,-0.32196 2.42454,-1.26995 1.816327,-0.955747 -0.46355,0.239469 -4.861103,2.554622 -0.330126,0.170241 -0.897189,0.456754 -1.694718,1.175486 -2.727183,1.326577 -0.325354,0.03488 -0.652908,-0.0073 -0.97407,-0.0577 C 10.878358,51.423866 10.444808,51.290103 9.9916394,51.243278 9.5222929,51.186497 9.0572143,51.100283 8.6081975,50.961414 8.1471563,50.817064 7.6725248,50.696852 7.2501224,50.468809 6.980597,50.301786 6.7140561,50.120521 6.5808632,49.840234 6.4644401,49.569829 6.3897041,49.295086 6.3764837,49.003386 6.322145,48.70141 6.2119549,48.415517 6.1334083,48.119033 6.0424514,47.759275 5.9918292,47.394767 5.9746736,47.025469 c 0.035007,-0.383343 0.085888,-0.765654 0.1867453,-1.139947 0.051463,-0.331884 0.1353103,-0.656402 0.2064227,-0.984766 0.1317543,-0.432107 0.3041469,-0.857843 0.5259061,-1.258457 0.2467467,-0.370024 0.4593189,-0.771169 0.8050004,-1.075805 0.084711,-0.07595 0.1829148,-0.138868 0.2669028,-0.215477 0.043774,-0.03993 0.074485,-0.09034 0.1162295,-0.132022 0.6285546,-0.627656 1.7889048,-0.949599 2.3991226,-1.371802 0.05076,-0.02601 0.202592,-0.104743 0.15227,-0.07804 -0.620142,0.329035 -2.4767759,1.321907 -1.8617453,0.985055 0.8910064,-0.488002 1.6365013,-0.947679 2.5427263,-1.297407 0.403636,-0.141661 0.813547,-0.257439 1.236587,-0.341347 0.512405,-0.135472 1.034238,-0.237663 1.547743,-0.369755 0,0 -1.8562,1.297568 -1.8562,1.297568 z"
       inkscape:connector-curvature="0" />
    <path
       style="fill:#cccccc;fill-opacity:1;stroke:#ff0000;stroke-width:0;stroke-miterlimit:4;stroke-opacity:1;stroke-dasharray:none"
       id="path5410"
       d="m 23.056243,39.85745 c 0.208524,0.531813 0.385897,1.070411 0.61469,1.597486 0.171358,0.413446 0.399237,0.810657 0.614801,1.211158 0.226843,0.376736 0.506302,0.733536 0.762464,1.098918 0.332107,0.454657 0.55247,0.949103 0.802973,1.431833 0.173096,0.311996 0.233843,0.647554 0.31886,0.977479 0.139816,0.383897 0.203221,0.778702 0.283259,1.171307 0.09928,0.383597 0.142282,0.773235 0.225735,1.158713 0.09199,0.377858 0.122903,0.761756 0.139628,1.145243 0.02386,0.336302 -0.004,0.674398 0.03243,1.010002 0.06461,0.286483 0.110834,0.573675 0.134146,0.863814 0.01923,0.129581 0.0569,0.256881 0.09027,0.384578 0,0 -2.270577,0.932769 -2.270577,0.932769 l 0,0 c -0.03448,-0.136796 -0.07324,-0.272967 -0.101077,-0.410705 -0.02044,-0.286964 -0.06098,-0.572021 -0.12982,-0.854732 -0.05665,-0.340092 -0.0066,-0.6849 -0.03101,-1.027002 -0.01567,-0.375349 -0.03851,-0.751387 -0.12466,-1.121861 -0.08389,-0.386012 -0.132339,-0.774802 -0.222605,-1.16011 -0.08861,-0.388392 -0.129461,-0.784246 -0.289385,-1.161718 -0.08316,-0.319832 -0.138113,-0.645499 -0.285867,-0.952969 -0.231339,-0.479335 -0.446642,-0.967061 -0.780116,-1.411767 -0.266896,-0.369322 -0.563622,-0.727721 -0.787605,-1.113997 -0.210537,-0.407443 -0.448652,-0.807474 -0.609466,-1.228944 -0.218849,-0.524749 -0.382693,-1.062635 -0.635989,-1.578851 0,0 2.248924,-0.960644 2.248924,-0.960644 z"
       inkscape:connector-curvature="0" />
    <path
       style="fill:#cccccc;fill-opacity:1;stroke:#ff0000;stroke-width:0;stroke-miterlimit:4;stroke-opacity:1;stroke-dasharray:none"
       id="path5412"
       d="m 26.802489,40.713312 c 0.427738,-0.156617 0.881772,-0.224889 1.334883,-0.275711 0.375179,-0.052 0.758482,-0.0069 1.131826,-0.06372 0.298714,-0.07957 0.588225,-0.05783 0.890555,-0.02451 0.388378,0.01643 0.76508,0.107813 1.144187,0.181649 0.53178,0.08586 1.062316,0.198651 1.566818,0.38105 0.392625,0.119569 0.751895,0.313977 1.109462,0.504194 0.283593,0.115928 0.533997,0.289852 0.788974,0.452359 0.258691,0.17716 0.541049,0.29683 0.767254,0.513981 0.268253,0.276799 0.330418,0.632786 0.377063,0.991597 0.05164,0.350437 0.0033,0.697828 -0.04462,1.045204 -0.04726,0.270323 -0.120191,0.534295 -0.233276,0.786471 -0.111338,0.2677 -0.284672,0.488836 -0.497529,0.69064 -0.19446,0.182322 -0.419569,0.325477 -0.644723,0.46986 -0.854273,0.629724 -1.576969,0.891921 -2.473707,1.212855 -0.261339,0.04916 -0.509224,0.133832 -0.766843,0.194975 -0.246057,0.06394 -0.508148,0.02004 -0.751315,0.08549 -0.232526,0.07699 -0.482887,0.06076 -0.717708,0.121091 -0.268828,0.06866 -0.546291,0.09119 -0.823265,0.10504 -0.276381,-0.0073 -0.572422,-0.03942 -0.836855,-0.121813 -0.05313,-0.02487 -0.121066,-0.04446 -0.151484,-0.09989 -0.327626,-0.5971 1.500732,-1.027788 1.812874,-1.247171 0.52,-0.365472 -1.123617,0.61036 -1.685425,0.91554 0.859042,-0.551225 1.533388,-0.961732 2.457161,-1.16951 0.256998,-0.02214 0.491646,-0.117916 0.744853,-0.159586 0.320432,-0.03236 0.642918,-0.03308 0.964756,-0.03617 0.342228,-0.002 0.684477,-0.0012 1.026707,2.42e-4 0.370894,-0.02498 0.732353,0.0257 1.098316,0.07015 0.333952,0.08099 0.671505,0.141537 1.014664,0.172192 0.314673,0.0556 0.607385,0.191929 0.886476,0.336265 0.266664,0.158172 0.498164,0.361451 0.748433,0.54093 0.226668,0.172954 0.353182,0.420754 0.45164,0.673889 0.08525,0.323339 0.111662,0.661712 0.100623,0.994289 -0.02425,0.265007 -0.192859,0.45599 -0.368332,0.647942 -0.138822,0.187788 -0.318294,0.337074 -0.492992,0.493456 -0.745409,0.568256 -1.553307,1.148708 -2.492394,1.359765 -0.264018,0.12594 -0.550958,0.192972 -0.825613,0.291975 -0.282831,0.04713 -0.507312,0.201051 -0.755935,0.32458 -0.262181,0.123213 -0.517916,0.255779 -0.790392,0.360538 -0.263342,0.128733 -0.526551,0.250827 -0.814957,0.319855 -0.292444,0.0064 -0.533908,0.144349 -0.805371,0.223323 -0.145562,0.102028 -0.324739,0.122984 -0.488749,0.179165 -0.07168,0.02455 -0.137355,0.06282 -0.208018,0.08987 0.559768,-0.300413 1.119269,-0.601272 1.679303,-0.901242 0.03005,-0.01609 -0.0592,0.03365 -0.08932,0.04961 -0.626667,0.332079 -1.241231,0.68561 -1.881022,0.994503 -0.05112,0.02468 -0.114775,-0.0022 -0.172163,-0.0032 0,0 1.643266,-1.159135 1.643266,-1.159135 l 0,0 c 0.04838,-0.01378 0.188337,-0.06609 0.145128,-0.04134 -3.74518,2.145734 -0.470614,0.167443 0.292418,-0.143173 0.231446,-0.08907 0.470882,-0.159809 0.69922,-0.256895 0.265766,-0.09464 0.530711,-0.167191 0.809896,-0.218472 0.27561,-0.09387 0.533115,-0.225858 0.800484,-0.338315 0.262948,-0.117818 0.520461,-0.244246 0.778744,-0.370933 0.249099,-0.128308 0.500597,-0.233627 0.77653,-0.301484 0.282014,-0.08481 0.549686,-0.201212 0.830978,-0.287442 0.637582,-0.235997 1.650726,-0.869129 -1.376628,0.790674 -0.08307,0.04555 0.158186,-0.103231 0.233341,-0.159751 0.03401,-0.02558 0.06896,-0.05004 0.103433,-0.07506 0.09898,-0.06705 0.168832,-0.150418 0.261761,-0.222661 0.09489,-0.07377 0.193492,-0.126358 0.24381,-0.241745 0.157348,-0.168491 0.349667,-0.320449 0.427989,-0.538157 0.04585,-0.304041 9.28e-4,-0.620478 -0.06286,-0.919789 -0.0804,-0.221537 -0.189799,-0.434497 -0.390206,-0.580752 -0.235513,-0.178905 -0.464963,-0.369399 -0.72802,-0.511626 -0.267658,-0.126405 -0.541088,-0.252579 -0.843782,-0.277326 -0.340553,-0.04326 -0.673522,-0.119603 -1.011328,-0.17734 -0.360702,-0.04287 -0.719935,-0.06515 -1.084,-0.05008 -0.342048,6.04e-4 -0.684105,-8.46e-4 -1.026139,0.003 -0.316922,0.0055 -0.637099,0.0092 -0.948371,0.07185 -0.244834,0.05857 -0.487844,0.119897 -0.735536,0.167014 -0.782091,0.230269 -1.986781,0.828995 1.096198,-0.715382 -0.616014,0.335792 -1.186167,0.761684 -1.84804,1.007375 -0.608176,0.225756 1.132069,-0.617708 1.684981,-0.946846 0.02028,-0.01207 -0.04868,-0.0045 -0.07027,-0.01436 -0.02244,-0.01023 -0.04001,-0.02821 -0.05826,-0.04424 -0.004,-0.0036 0.0101,0.0043 0.01515,0.0064 0.02387,0.008 0.04774,0.0161 0.07161,0.02414 0.260756,0.05123 0.528029,0.09527 0.794917,0.06968 0.272899,-0.02299 0.542078,-0.06517 0.808664,-0.125515 0.242663,-0.03106 0.483485,-0.06719 0.722374,-0.118721 0.248378,-0.01854 0.499579,-0.02887 0.739071,-0.10063 0.249757,-0.0728 0.50771,-0.116491 0.750945,-0.208524 0.743941,-0.287113 2.121889,-0.762337 -1.060849,0.689041 0.237939,-0.124869 0.456752,-0.272307 0.668474,-0.434006 0.211153,-0.183872 0.422932,-0.360887 0.52128,-0.625358 0.134538,-0.230412 0.204673,-0.477317 0.266544,-0.733009 0.0478,-0.334247 0.12128,-0.666903 0.07167,-1.005616 -0.03243,-0.314427 -0.06927,-0.632786 -0.311307,-0.871773 -0.227557,-0.192253 -0.504793,-0.311632 -0.747889,-0.485012 -0.254181,-0.157738 -0.505801,-0.318744 -0.781452,-0.442088 -0.343077,-0.191255 -0.698326,-0.36575 -1.077187,-0.485381 -0.502439,-0.169297 -1.02516,-0.272464 -1.550649,-0.35568 -0.379511,-0.07188 -0.759949,-0.137027 -1.147309,-0.156108 -0.291832,-0.02375 -0.573286,0.009 -0.86177,0.05456 -0.37359,0.01982 -0.749279,0.01134 -1.120807,0.06133 -0.450391,0.06005 -0.898836,0.146332 -1.314327,0.328149 0,0 1.613296,-1.205545 1.613296,-1.205545 z"
       inkscape:connector-curvature="0" />
    <path
       style="fill:#cccccc;fill-opacity:1;stroke:#ff0000;stroke-width:0;stroke-miterlimit:4;stroke-opacity:1;stroke-dasharray:none"
       id="path5414"
       d="m 43.190802,42.169235 c 0.363925,-0.108952 0.720852,-0.235646 1.09355,-0.308758 0.30625,-0.05482 0.616872,-0.057 0.926324,-0.05694 0.40192,9.66e-4 0.803848,0.0021 1.205759,0.0053 0.47991,0.0031 0.959834,0.0021 1.439744,-3.63e-4 0.404479,-0.0026 0.808965,-3.62e-4 1.213441,0.0013 0.443194,0.0015 0.886389,-2.42e-4 1.329577,-0.0026 0.34086,-0.03032 0.672966,0.03164 1.009797,0.07389 0.356005,0.05407 0.717852,0.03164 1.072783,0.08833 0.311888,0.03007 0.61138,0.121205 0.917467,0.184134 0.301747,0.02412 0.585019,0.106949 0.864516,0.226738 0.240071,0.08026 0.437208,0.270054 0.620716,0.449812 0.1236,0.133883 0.0605,0.07152 0.18862,0.187875 0,0 -1.641445,1.105809 -1.641445,1.105809 l 0,0 c -0.130814,-0.125892 -0.06752,-0.06289 -0.190089,-0.188777 -0.176276,-0.161962 -0.357149,-0.317806 -0.583318,-0.388131 -0.271892,-0.110462 -0.555728,-0.152759 -0.841652,-0.200857 -0.3001,-0.06935 -0.599821,-0.137466 -0.905714,-0.171597 -0.356249,-0.03155 -0.714417,-0.03919 -1.069256,-0.09056 -0.332237,-0.04008 -0.663347,-0.06747 -0.998166,-0.05394 -0.441013,-0.0024 -0.882035,-0.0041 -1.323054,-0.0025 -0.405569,0.0017 -0.811149,0.004 -1.21672,0.0012 -0.47877,-0.0028 -0.95755,-0.0042 -1.436328,-0.0027 -0.404476,0.0017 -0.808967,-0.0012 -1.213428,0.0044 -0.302929,0.0083 -0.607048,0.0205 -0.904754,0.08753 -0.370013,0.0877 -0.728551,0.217386 -1.092638,0.329306 0,0 1.534268,-1.277903 1.534268,-1.277903 z"
       inkscape:connector-curvature="0" />
    <path
       style="fill:#cccccc;fill-opacity:1;stroke:#ff0000;stroke-width:0;stroke-miterlimit:4;stroke-opacity:1;stroke-dasharray:none"
       id="path5416"
       d="m 48.998156,42.579633 c 0.293809,0.425892 0.547225,0.861669 0.72876,1.32047 0.146018,0.290621 0.241894,0.591208 0.293822,0.898222 0.03395,0.266838 0.03158,0.535437 0.03284,0.803217 -0.01705,0.269524 0.06105,0.530735 0.181428,0.783274 0.167079,0.275939 0.219051,0.572436 0.256757,0.870149 0.02951,0.295857 0.03015,0.592847 0.03236,0.889365 0.0011,0.244254 2.65e-4,0.488511 2.3e-5,0.732765 -2.65e-4,0.231565 -3.98e-4,0.463132 -3.98e-4,0.694697 -0.02326,0.23119 0.03908,0.456582 0.08657,0.683526 0.04825,0.238281 0.06182,0.47917 0.06609,0.719736 0.02292,0.33311 -0.044,0.662711 -0.09022,0.992979 -0.05931,0.305021 -0.11596,0.610921 -0.256993,0.902065 -0.07887,0.146936 -0.230685,0.247814 -0.386133,0.35015 0,0 -2.155447,0.654121 -2.155447,0.654121 l 0,0 c 0.136019,-0.10276 0.306922,-0.173376 0.421576,-0.290412 0.203141,-0.26014 0.22719,-0.566736 0.302891,-0.856364 0.04416,-0.323166 0.120579,-0.645532 0.09334,-0.971291 -0.0071,-0.233266 -0.01237,-0.467158 -0.05481,-0.69876 -0.04611,-0.234832 -0.126431,-0.467023 -0.102845,-0.70605 2e-5,-0.231682 2.1e-5,-0.463366 6.63e-4,-0.695048 7.95e-4,-0.244661 0.0022,-0.489321 0.0044,-0.733978 0.0017,-0.292781 0.004,-0.585805 -0.01942,-0.878223 -0.02873,-0.283788 -0.07314,-0.566152 -0.231223,-0.829334 -0.133562,-0.266911 -0.230897,-0.548379 -0.221286,-0.834823 0.0012,-0.262189 0.0042,-0.524754 -0.02139,-0.786448 -0.03856,-0.300959 -0.122811,-0.595345 -0.257837,-0.881403 -0.158604,-0.448969 -0.390259,-0.878226 -0.722473,-1.274172 0,0 2.019108,-0.85843 2.019108,-0.85843 z"
       inkscape:connector-curvature="0" />
    <path
       style="fill:#cccccc;fill-opacity:1;stroke:#ff0000;stroke-width:0;stroke-miterlimit:4;stroke-opacity:1;stroke-dasharray:none"
       id="path5418"
       d="m 45.474228,50.675239 c 0.369866,0.100734 0.734331,0.225906 1.097985,0.357606 0.287179,0.07206 0.564752,0.192563 0.852381,0.261808 0.26786,0.108215 0.522836,0.257456 0.760733,0.447612 0.220938,0.184714 0.480823,0.265056 0.712611,0.421391 0.179876,0.132532 0.380746,0.167599 0.584265,0.1869 0.316043,-0.01688 0.612809,0.05003 0.914497,0.163815 0.328896,0.190539 0.678446,0.291596 1.024555,0.411786 0.377198,0.129146 0.771616,0.140078 1.1598,0.156885 0.372228,0.0099 0.725275,-0.139258 1.088058,-0.215371 0.299355,-0.04552 0.597286,-0.05754 0.89417,-0.125365 0.317167,-0.09256 0.625966,-0.182199 0.921796,-0.35865 0.05093,-0.02849 0.101861,-0.05699 0.15279,-0.08548 0,0 -1.322379,1.327066 -1.322379,1.327066 l 0,0 c -0.0509,0.02773 -0.101799,0.05546 -0.152698,0.08319 -0.308078,0.149911 -0.628724,0.240343 -0.951861,0.322514 -0.295642,0.05373 -0.59569,0.05302 -0.889476,0.126163 -0.362873,0.09139 -0.725121,0.193524 -1.098386,0.167419 -0.400143,-0.02085 -0.805461,-0.04135 -1.192205,-0.185838 -0.346915,-0.113257 -0.682346,-0.261432 -1.018754,-0.417268 -0.302391,-0.09087 -0.603711,-0.112276 -0.913487,-0.124405 -0.217545,-0.0382 -0.426136,-0.109253 -0.617336,-0.251521 -0.239738,-0.142473 -0.493308,-0.250267 -0.714252,-0.440156 -0.229868,-0.168254 -0.475798,-0.304222 -0.734205,-0.384511 -0.284559,-0.08659 -0.564926,-0.195099 -0.849276,-0.282666 -0.366195,-0.136238 -0.736805,-0.248574 -1.110647,-0.345726 0,0 1.401321,-1.217206 1.401321,-1.217206 z"
       inkscape:connector-curvature="0" />
  </g>
</svg>
